<svg xmlns="http://www.w3.org/2000/svg" width="344.305" height="236.435" viewBox="0 0 344.305 236.435">
  <g id="_32619_Converted_" data-name="32619 [Converted]" transform="translate(-107.695 -82)">
    <g id="object" transform="translate(107.695 82)">
      <path id="Path_703" data-name="Path 703" d="M290.932,374.75a1.3,1.3,0,0,0-.249-.235c-.878-.548-1.661-.306-2.653-.59-.441-.128-.782-1.259-1.5-.629-.27.231-.843.9-1.422,1.4a6.81,6.81,0,0,1-3.556,1.28c-4.879.48-9.755-.384-14.552-1.387a1.721,1.721,0,0,1-.772-.3,1.843,1.843,0,0,1-.466-1.38,37.736,37.736,0,0,0-1.042-6.871,14.164,14.164,0,0,0-2.489-5.622,6.28,6.28,0,0,0-5.416-2.461,4.918,4.918,0,0,0-3.691,2.546c-1.778,3.4,1.778,7.735,3.357,10.629a66.5,66.5,0,0,0,5.036,7.87,2.845,2.845,0,0,0,.8.818,2.909,2.909,0,0,0,1.184.3,145.747,145.747,0,0,0,15.825.594c1.454,0,2.724-.779,4.068-.775.861,0,1.533.626,2.344.807a7.972,7.972,0,0,0,2.71.085c1.6-.252,2.368-1.739,3.169-2.969a1.707,1.707,0,0,0,.356-.853,2.5,2.5,0,0,0-.509-1.476A4.618,4.618,0,0,0,290.932,374.75Z" transform="translate(-201.091 -259.797)" fill="#ffddc9"/>
      <path id="Path_704" data-name="Path 704" d="M245.432,340.188a28.5,28.5,0,0,1,4.456,4.865c.843,1.348,1.543,2.88,2.873,3.755a7.9,7.9,0,0,0,3.556.992q1.458.156,2.92.252l1.483-6.86a8,8,0,0,0-2.909-.569c-1.127-7.066-1.878-14.164-2.93-21.234-.477-3.183-.992-6.472-2.749-9.164-3.759-5.743-12.635-4.05-13.432,3a37.234,37.234,0,0,0,2.041,16.408c.8,2.28,1.778,5.117,3.311,7.013a19.106,19.106,0,0,0,1.38,1.536Z" transform="translate(-191.981 -228.126)" fill="#0071bb"/>
      <path id="Path_705" data-name="Path 705" d="M164.381,679.283a17.427,17.427,0,0,1-3.2-.437,55.3,55.3,0,0,1,1.28-11.206c1.675,1.856,3.087.779,3.03,4.267C165.469,673.042,164.16,677.562,164.381,679.283Z" transform="translate(-142.16 -459.377)" fill="#e5d1bd"/>
      <path id="Path_706" data-name="Path 706" d="M151.451,693.747c-1.262-.452-1.547,2.564-1.558,3.275a5.078,5.078,0,0,1-.064,1.273,3.347,3.347,0,0,1-.711,1.2l-1.835,2.308a3.97,3.97,0,0,0-.711,1.113,2.368,2.368,0,0,0,1.216,2.752c3.389,1.711,6.486-2.436,7.223-5.174.11-.42.2-.846.277-1.273.167-.882.836-2.809.487-3.67-.409-1.006-1.647-.277-2.461-.658C152.574,694.543,151.963,693.928,151.451,693.747Z" transform="translate(-132.68 -476.17)" fill="#212940"/>
      <path id="Path_707" data-name="Path 707" d="M180.041,467.933c-3.161,8.606-6.81,17.023-8.89,26.031-2.571,11.131-6.714,21.984-8.841,33.136a27.472,27.472,0,0,1-4.118-.174c-1.565-.185-4.047-.608-4.623-2.315a10.411,10.411,0,0,1,.06-3.2c.142-2.909.356-5.811.562-8.713.6-8.211,1.021-16.522,2.532-24.616,1.586-8.517,3.108-17.069,4.506-25.572q1.067-6.6,2.706-13.1c.284-1.113,3.218-12.6,3.794-12.5a53.783,53.783,0,0,1,19.2,6.888,2.8,2.8,0,0,1,1.341,1.366,2.538,2.538,0,0,1-.167,1.693c-1.778,5.292-4.157,10.256-6.045,15.526C181.4,464.217,180.731,466.048,180.041,467.933Z" transform="translate(-137.176 -310.697)" fill="#37474f"/>
      <path id="Path_708" data-name="Path 708" d="M229.9,679.541a17.8,17.8,0,0,0,3.2.537A55.4,55.4,0,0,0,235.2,669c-2.151,1.277-3.176-.174-4.161,3.176C230.718,673.267,230.622,677.962,229.9,679.541Z" transform="translate(-186.442 -460.253)" fill="#e5d1bd"/>
      <path id="Path_709" data-name="Path 709" d="M233.416,694.247c0,2.063,1.625,4.267,2.525,6.138a1.7,1.7,0,0,1,.217.686,1.678,1.678,0,0,1-.427.971,2.624,2.624,0,0,1-1.067,1.013,2.521,2.521,0,0,1-1.451,0c-.8-.178-1.6-.391-2.383-.64a1.647,1.647,0,0,1-.555-.256,1.692,1.692,0,0,1-.409-.594,6.23,6.23,0,0,1-1-3.151,19.439,19.439,0,0,0-.039-3.883c-.117-.615-.27-1.422.256-1.742.409-.263,1.156.1,1.6.171a6.029,6.029,0,0,1,2.23.491,1.032,1.032,0,0,1,.38.327A.882.882,0,0,1,233.416,694.247Z" transform="translate(-185.68 -475.521)" fill="#212940"/>
      <path id="Path_710" data-name="Path 710" d="M224.241,465.029c.459,9.157,1.44,18.279.747,27.5-.857,11.38-.128,22.983-1.422,34.267a27.961,27.961,0,0,0,3.983,1.067c1.547.288,4.047.626,5.092-.839a10.3,10.3,0,0,0,.893-3.076c.733-2.816,1.4-5.651,2.055-8.485,1.863-8.019,3.94-16.077,4.908-24.253,1.013-8.6,2.1-17.212,3.3-25.757.619-4.417,1.067-8.855,1.312-13.307.06-1.149.672-12.984.092-13.069a53.935,53.935,0,0,0-20.38.868,2.76,2.76,0,0,0-1.686.9,2.613,2.613,0,0,0-.356,1.668c.124,5.583.918,11.024,1.163,16.625C224.046,461.074,224.142,463.027,224.241,465.029Z" transform="translate(-181.854 -311.716)" fill="#37474f"/>
      <path id="Path_711" data-name="Path 711" d="M185.637,304.944l-.334.121a18.867,18.867,0,0,0-4.94,3.2c-2.3,1.856-3.432,2.671-4.321,5.423a67.062,67.062,0,0,0-1.856,7.923c-2.6,13.577-3.108,27.1-4.979,40.779-.512,3.727-.9,8.1,1.849,10.669,4.886-3.805,11.024-4.022,16.956-4.029,4.164,0,8.233-1.351,12.4-.885,3.986.444,7.468-.555,11.515-.292.978.064,2.219.053,2.6-.846-1.4-4.2-1.376-8.709-1.693-13.122-.818-11.415-4.6-22.372-6.127-33.709-.519-3.855-.8-10.252-3.78-13.158-3.243-3.169-10.64-3.233-14.811-2.614A14.505,14.505,0,0,0,185.637,304.944Z" transform="translate(-147.097 -225.115)" fill="#0071bb"/>
      <path id="Path_712" data-name="Path 712" d="M227.439,318.235l-1.622-1.1,3.275-3.279a5.054,5.054,0,0,0,1.174-1.518,4.978,4.978,0,0,0,.263-2.066,7.39,7.39,0,0,0-.437-2.845c-.711-1.618-3.14-2.525-4.811-2.447a14.259,14.259,0,0,0-5.238,1.614,5.229,5.229,0,0,0-1.462.918,3.663,3.663,0,0,0-.736,3.538,8.78,8.78,0,0,0,1.931,3.225,17.983,17.983,0,0,1,2.283,3.016l-4.4,2.514c-.2.114-.416.252-.466.476a.847.847,0,0,0,.2.6c1.529,2.407,3.307,5.665,3.321,8.567.021,3.538.356,7.112.48,10.647q.448,11.07.274,22.148-.043,2.55-.114,5.1a38.079,38.079,0,0,0,5.69-.064,1.874,1.874,0,0,0,1.149-.356,1.924,1.924,0,0,0,.413-1.387c.032-1.234.039-2.472.028-3.706-.064-7.287-.775-14.545-1.134-21.821-.3-6.181-1.145-13.485,2.913-18.705a.971.971,0,0,0,.26-.526c0-.306-.274-.526-.526-.711Z" transform="translate(-178.255 -225.683)" fill="#fff"/>
      <path id="Path_713" data-name="Path 713" d="M219.972,265.755a1.423,1.423,0,0,0,.285.384,3.251,3.251,0,0,0,1.821.843,8.178,8.178,0,0,0,2.642-.185c1.177-.224,1.134-.914,1.305-1.984.092-.583.149-1.17.2-1.778.025-.324-.1-1.479.1-1.707.142-.153.711-.1.96-.231a2.721,2.721,0,0,0,.96-.957,7.62,7.62,0,0,0,.8-1.959l1.067-3.531a18.761,18.761,0,0,0,.853-3.67c.178-1.888-.128-4.552-1.554-5.935a8.513,8.513,0,0,0-4.936-1.92,10.313,10.313,0,0,0-6.678,1.348,5.487,5.487,0,0,0-2.038,2.016,8.86,8.86,0,0,0-.6,4.623q.107,2.194.217,4.385c.085,1.682.3,3.62,1.554,4.531.669.484,1.543.59,2.116,1.209a4.47,4.47,0,0,1,.711,2.93A3.67,3.67,0,0,0,219.972,265.755Z" transform="translate(-176.916 -185.763)" fill="#ffddc9"/>
      <path id="Path_714" data-name="Path 714" d="M239.343,238.582a2.556,2.556,0,0,1,.2.427c.27.775.089,1.65.356,2.429.416,1.23,1.856,1.974,2.073,3.254.174,1.049-.541,2.045-.6,3.108-.068,1.159.676,2.258.562,3.4a7.586,7.586,0,0,1-1.326,3.2c.185-.249,1.849-.16,2.283-.423a1.75,1.75,0,0,0,.932-1.348,13.324,13.324,0,0,1,.356-2.063c.377-.861,1.141-1.494,1.422-2.411.356-1.252-.3-2.571-.245-3.876.078-1.974,1.778-3.834,1.163-5.708-.356-1.1-1.422-1.8-2.031-2.8a14.651,14.651,0,0,1-.942-2.461,2.928,2.928,0,0,0-1.7-1.888c-.469-.139-.974-.082-1.454-.174a15.954,15.954,0,0,1-2.322-1c-1.145-.388-3.165.768-3.834,1.739s-.327,1.778.356,2.635C235.69,236.043,238.411,236.971,239.343,238.582Z" transform="translate(-188.996 -177.487)" fill="#212940"/>
      <path id="Path_715" data-name="Path 715" d="M198.273,229.694a22.09,22.09,0,0,0-2.162,1.454c-1.22,1.149-1.451,2.98-1.5,4.659-.039,1.49-.69,2.816-.53,4.371a3.805,3.805,0,0,0,1.4,2.713c1.067.768,2.72.9,3.2,2.112.512,1.326-.861,2.994-.028,4.143.459.637,1.362.729,2.016,1.156a5.721,5.721,0,0,1,1.558,2.073,2.651,2.651,0,0,0,1.995,1.522,7.274,7.274,0,0,0-.494-3.6c-.331-.711-1.3-2.013-.555-2.781.473-.637,1.586-.843,1.614-1.636a1.817,1.817,0,0,0-.452-1A4.559,4.559,0,0,1,204,240.74a5.942,5.942,0,0,1,2.944-3.033c1.519-.736,1.273-1.106,1.718-2.564.405-1.337,1.166-1.65,2.372-2.134a2.574,2.574,0,0,0,1.828-1.725,2.948,2.948,0,0,0,.228-2.454,4.932,4.932,0,0,0-1.529-1.575c-1.227-.939-2.607-1.92-4.146-1.81-.853.06-1.661.462-2.514.512-.573.032-1.138-.1-1.71-.114a4.555,4.555,0,0,0-2.792.843c-.793.587-.772,1.2-1.213,2.027A2.98,2.98,0,0,1,198.273,229.694Z" transform="translate(-163.347 -174.428)" fill="#212940"/>
      <path id="Path_716" data-name="Path 716" d="M186.455,209.746c.149-.925.053-2.134-.832-2.443a9.065,9.065,0,0,0-1.529-.085c-1.067-.22-1.44-1.519-2-2.457a.821.821,0,0,0-.334-.356,1.316,1.316,0,0,0-.693.018c-1.067.132-1.878-.925-2.884-1.305a2.525,2.525,0,0,0-3.2,1.583c-.153.526-.128,1.088-.27,1.618-.587,2.134-3.72,3.048-3.8,5.263-.053,1.5,1.422,2.93.843,4.317-.356.885-1.5,1.49-1.373,2.44a1.323,1.323,0,0,0,1.348,1.017,2.656,2.656,0,0,0,1.647-.754c.74-.644,1.294-1.469,1.995-2.134a3.393,3.393,0,0,1,2.61-1.113c.971.121,1.778.85,2.724.693.747-.128,1.3-.793,2.038-.981a6.446,6.446,0,0,1,2.109.135c.708.043,1.575-.324,1.593-1.031a1.917,1.917,0,0,1,0-.516c.153-.455.932-.43,1.067-.885-.356-.573-.889-.356-1.156-1.109A4.856,4.856,0,0,1,186.455,209.746Z" transform="translate(-148.082 -159.96)" fill="#212940"/>
      <path id="Path_717" data-name="Path 717" d="M433.278,231.976a38.78,38.78,0,0,1-3.364,5.092,11.138,11.138,0,0,0-1.778,5.05c-.213,1.38-.711,2.457-2.368,2.7-3.137.445-2.237-2.134-2.952-4.033-.814-2.151-2.55-3.855-3.762-5.779-3.506-5.555-2.507-16.536,4.783-18.88C431.795,213.558,435.849,226.357,433.278,231.976Z" transform="translate(-307.071 -168.21)" fill="#ffddc9"/>
      <path id="Path_718" data-name="Path 718" d="M413.9,230.584a4.045,4.045,0,0,0-2.571.711c-.672.6-.6,1.931.288,2.073.8.132,1.842-.711,2.333-.1.288.356.036.882-.181,1.3a7.639,7.639,0,0,0-.711,5.174c-.327.306-.843,0-1.134-.331a16.716,16.716,0,0,1-3.3-5.427,3.293,3.293,0,0,1-1.213,1.177,3.863,3.863,0,0,0-.075-2.336c-.683-2.809-1.145-6.1.818-8.4a7.312,7.312,0,0,1,4.267-2.233,21.378,21.378,0,0,1,4.861-.149c.693.032,1.547.178,1.711.821a7.628,7.628,0,0,0-3.848,3.233C414.91,226.548,414,230.581,413.9,230.584Z" transform="translate(-300.399 -172.195)" fill="#212940"/>
      <path id="Path_719" data-name="Path 719" d="M399.139,212.8l-.164.121a6.961,6.961,0,0,1-2.169,1.394c-1.2.334-2.489-.245-3.67.164-1.323.459-2.191,2.038-3.158,2.973a13.957,13.957,0,0,1-5.647,3.3,14.166,14.166,0,0,1-3.311.594,5.947,5.947,0,0,1-1.686,0c-.665-.181-.644-.484.064-.711,2.226-.711,2.923-3.837,2.756-5.907-.135-1.636-.711-3.343-.075-4.861a5.785,5.785,0,0,1,2.489-2.422c1.088-.711,2.272-.533,3.51-.885s2.343-1.383,3.663-1.643c1.39-.274,2.781.356,4.171.615a8.684,8.684,0,0,0,3.492-.043,13.835,13.835,0,0,1,3.076-.633,5,5,0,0,1,3.876,2.24,10.3,10.3,0,0,1,1.654,7.162c.068-.356-1.156-1.679-1.422-1.963a3.32,3.32,0,0,0-1.984-1.255A8.451,8.451,0,0,0,399.139,212.8Z" transform="translate(-282.424 -161.162)" fill="#212940"/>
      <path id="Path_720" data-name="Path 720" d="M949.118,363.633a1.38,1.38,0,0,0-.3-.256c-1.042-.583-1.938-.263-3.1-.541-.516-.124-.974-1.422-1.778-.647-.3.285-.925,1.067-1.551,1.693a7.851,7.851,0,0,1-4.043,1.671c-5.622.818-11.312.085-16.917-.821a2.035,2.035,0,0,1-.914-.3,2.156,2.156,0,0,1-.612-1.572,43.313,43.313,0,0,0-1.575-7.895,16.2,16.2,0,0,0-3.2-6.373,7.282,7.282,0,0,0-6.4-2.557,5.69,5.69,0,0,0-4.122,3.137c-1.888,4.033,2.489,8.858,4.456,12.123a77.389,77.389,0,0,0,6.252,8.858,3.275,3.275,0,0,0,.974.9,3.382,3.382,0,0,0,1.387.281,166.247,166.247,0,0,0,18.346-.167c1.686-.085,3.112-1.049,4.673-1.117.992-.043,1.806.64,2.752.807a9.245,9.245,0,0,0,3.144-.046c1.839-.377,2.646-2.134,3.506-3.606a2.041,2.041,0,0,0,.377-1.01,2.927,2.927,0,0,0-.672-1.682A5.535,5.535,0,0,0,949.118,363.633Z" transform="translate(-620.911 -252.087)" fill="#ffddc9"/>
      <path id="Path_721" data-name="Path 721" d="M894.231,325.25c1.376,2.077,2.76,4.161,3.961,6.4a10.678,10.678,0,0,0,2.966,4.029,8.866,8.866,0,0,0,2.973,1.145,53.877,53.877,0,0,0,19.7,1.067,3.471,3.471,0,0,0,1.743-.565c.839-.665.91-1.892.91-2.962v-3.787a1.694,1.694,0,0,0-.242-1.067,1.668,1.668,0,0,0-.914-.473,97.851,97.851,0,0,0-12.336-2.514,7.072,7.072,0,0,1-3.755-1.252c-2.166-1.881-2.215-8.89-2.71-11.782-.565-3.3-1.024-6.636-1.675-9.925-.711-3.656-1.494-7.436-3.674-10.455-4.659-6.451-14.843-4.011-15.384,4.2a42.974,42.974,0,0,0,3.005,18.272A51.163,51.163,0,0,0,894.231,325.25Z" transform="translate(-609.039 -215.667)" fill="#3f60b2"/>
      <path id="Path_722" data-name="Path 722" d="M568.709,285.331a1.325,1.325,0,0,1,.377.06c1.085.4,1.423,1.262,2.344,1.945.416.3,1.654-.171,1.59.9-.021.4-.213,1.362-.27,2.2a7.564,7.564,0,0,0,1.3,4.026c2.923,4.659,7.031,8.389,11.209,11.952a1.98,1.98,0,0,0,.8.48,2.073,2.073,0,0,0,1.54-.533,41.9,41.9,0,0,1,6.806-3.791,15.728,15.728,0,0,1,6.7-1.636,7.054,7.054,0,0,1,5.9,3.112,5.519,5.519,0,0,1,.27,5.007c-1.778,3.912-8.08,3.73-11.735,4.317a74.29,74.29,0,0,1-10.43.935,3.219,3.219,0,0,1-1.277-.149,3.335,3.335,0,0,1-1.067-.846,158.064,158.064,0,0,1-11.38-13.62c-.992-1.3-1.177-2.952-2.105-4.143-.594-.757-1.6-.928-2.322-1.522a8.945,8.945,0,0,1-1.935-2.344c-.875-1.593-.085-3.293.459-4.847a1.964,1.964,0,0,1,.509-.91,2.832,2.832,0,0,1,1.657-.558A5.09,5.09,0,0,1,568.709,285.331Z" transform="translate(-402.137 -213.016)" fill="#ffddc9"/>
      <path id="Path_723" data-name="Path 723" d="M606.811,325.588a45.519,45.519,0,0,1-8.979.181,10.313,10.313,0,0,1-3.087-.612,11.7,11.7,0,0,1-3.826-3.033c-4.068-4.267-8.179-8.585-11.309-13.577l4.406-2.639a1.287,1.287,0,0,1,1.963.288q3.873,3.777,7.738,7.56a2.905,2.905,0,0,0,1.394.91,2.677,2.677,0,0,0,1.248-.139c7.07-2.038,13.375-7.24,19.733-10.8,3.147-1.76,6.4-3.556,10.011-3.848,7.671-.612,12.258,8.417,6.547,13.965C625.879,320.42,616.377,324.46,606.811,325.588Z" transform="translate(-411.789 -222.377)" fill="#37474f"/>
      <path id="Path_724" data-name="Path 724" d="M671.906,682.982l.125,8.745-5.181.068-.139-9.694Z" transform="translate(-467.915 -468.695)" fill="#ffddc9"/>
      <path id="Path_725" data-name="Path 725" d="M655.661,705.51l4.506,1.49,1.344,1.447-.228,3.428-12.166.946h0a2.713,2.713,0,0,1,1.358-4.122l.565-.2Z" transform="translate(-456.265 -483.78)" fill="#212940"/>
      <path id="Path_726" data-name="Path 726" d="M777.022,661.01l3.432,8.044-4.769,2.031-3.805-8.919Z" transform="translate(-535.685 -455.105)" fill="#ffddc9"/>
      <path id="Path_727" data-name="Path 727" d="M776.169,685.064a3.854,3.854,0,0,1,.6-.537c.573-.42,5.192-2.866,5.59-1.778a1.263,1.263,0,0,1,.021.566,42.07,42.07,0,0,1-2.215,9.31c-.466,1.287-1.174,2.71-2.489,3.034a3.987,3.987,0,0,1-1.778-.1,18.605,18.605,0,0,1-2.536-.772,1.384,1.384,0,0,1-.779-.541c-.313-.565.231-1.238.8-1.543s1.27-.523,1.547-1.109a2.273,2.273,0,0,0,.16-.85C775.191,688.609,774.828,686.543,776.169,685.064Z" transform="translate(-536.08 -468.935)" fill="#212940"/>
      <path id="Path_728" data-name="Path 728" d="M690.671,483.838c1.7,7.774,6.561,13.36,11.753,19.075a246.476,246.476,0,0,1,16.735,20.533l6.757-2.813c-1.881-10.924-7.063-20.949-11.078-31.294-2.792-7.18-5.053-14.772-5.174-22.532-.067-3.816.864-7.372,1.355-11.113.622-4.651.658-9.417,1.216-14.086.188-1.568.3-3.421-.907-4.438a4.162,4.162,0,0,0-1.935-.779C683.825,431.438,687.438,469.055,690.671,483.838Z" transform="translate(-481.894 -310.077)" fill="#a91c2c"/>
      <path id="Path_729" data-name="Path 729" d="M673.725,432.755a53.2,53.2,0,0,0-1.447-12.731,93.775,93.775,0,0,0-22.692,1.878c-7.031,1.422-11.419,2.955-11.469,10.583-.092,14.033-5.58,25.985-7.948,39.473-1.376,7.824,1,14.847,3.638,22.109a246.142,246.142,0,0,1,7.688,25.359l7.311-.046c2.4-10.821,1.422-22.048,1.614-33.143.142-7.7.932-15.587,3.762-22.813,3.112-7.941,7.592-4.779,12.735-9.388C671.919,449.551,673.7,440.9,673.725,432.755Z" transform="translate(-444.109 -299.755)" fill="#a91c2c"/>
      <path id="Path_730" data-name="Path 730" d="M676.308,300.731a19.367,19.367,0,0,1,2.208,2.116l1.874,2c2.166,2.312,3.236,5.729,4.164,8.681,4.883,15.523,6.639,36.824,3.467,53.044-12.027,1.042-25.96-1.991-37.951-3.631-1.166-.16-2.489-.423-3.094-1.422a4.114,4.114,0,0,1-.377-2.08c0-10.313,2.176-21.365,4.218-31.518a111.4,111.4,0,0,1,3.282-12.685c1.422-4.4,3.065-9.143,6.437-12.471,3.606-3.556,10.516-5.316,15.032-2.539A8.879,8.879,0,0,1,676.308,300.731Z" transform="translate(-454.957 -221.738)" fill="#37474f"/>
      <path id="Path_731" data-name="Path 731" d="M710.4,257.007c.306-1.4.242-3.041.43-4.246a8.273,8.273,0,0,0,.825-.459c5.018-3.2,13.432-20.4.06-24.253-12.141-3.5-11.511,13.208-9.139,20.174a10.343,10.343,0,0,0,1.75,3.293c.548.669.672.541.594,1.319-.124,1.17-1.035,2.159-1.191,3.364-.249,1.863.43,4.267.853,6.081l4.435-2.93A3.574,3.574,0,0,0,710.4,257.007Z" transform="translate(-490.135 -175.805)" fill="#ffddc9"/>
      <path id="Path_732" data-name="Path 732" d="M695.742,254.475a26.451,26.451,0,0,0,3.083,6.294,45.161,45.161,0,0,1,1.476-12.208,1.18,1.18,0,0,0,0-.914,1.127,1.127,0,0,0-.754-.405C694.429,246.139,694.444,250.6,695.742,254.475Z" transform="translate(-486.154 -188.369)" fill="#212940"/>
      <path id="Path_733" data-name="Path 733" d="M734.83,249.226c.821,1.156,2.617.843,3.883.21a13.781,13.781,0,0,0,7.112-14.605c-.978-4.769-6.988-8.346-8.2-2.429-.43,2.095.846,5,.555,7.322C737.76,243.042,736.21,246.217,734.83,249.226Z" transform="translate(-511.811 -176.926)" fill="#212940"/>
      <path id="Path_734" data-name="Path 734" d="M679.779,212.054l-1.8.711a3.58,3.58,0,0,1-3.556-.082c-.384-.217-2.937-2.632-2.322-3.133-4.072,3.325-.711,8.179.8,11.607,1.031,2.315,1.241,5.58,3.556,7.112,2.546,1.661,4.292-.441,6.6-1.383,2.038-.832,4.243-1.284,6.316-2.023,3.442-1.227,8.563-3.385,7.425-7.955-1.334-5.334-6.757-6.675-11.6-6.266A18.135,18.135,0,0,0,679.779,212.054Z" transform="translate(-470.138 -164.191)" fill="#212940"/>
      <path id="Path_735" data-name="Path 735" d="M698.122,328.331c-.558,3.513-.555,7.112-1.067,10.668-.278,1.938-.711,3.851-1.067,5.779a141.163,141.163,0,0,0-1.646,16.565c-.068,1.092-.131,2.187-.2,3.279a5.763,5.763,0,0,0,0,2.489c.324.651,1.2.743,1.839,1.006a9.307,9.307,0,0,1,2.546,1.554,4.234,4.234,0,0,0,2.685-3.24,13.642,13.642,0,0,0,0-4.385,150.779,150.779,0,0,1,.74-38.552,1.254,1.254,0,0,0,1.522-.711,3.655,3.655,0,0,0,.16-1.842,26.656,26.656,0,0,1-3.183-.021c-1.778-.089-2.29.324-2.29,2.283.861.413.711,1.661.462,2.585C698.428,326.631,698.261,327.47,698.122,328.331Z" transform="translate(-485.494 -235.949)" fill="#fff"/>
      <path id="Path_736" data-name="Path 736" d="M479.9,649.9a25.775,25.775,0,0,0,3.229-.309c.555-10.669-.455-21.878-.893-32.61l-8.232.441a95.938,95.938,0,0,1,4.075,17.646C478.2,636.016,479.74,649.892,479.9,649.9Z" transform="translate(-343.736 -426.732)" fill="#ffddc9"/>
      <path id="Path_737" data-name="Path 737" d="M490.774,702.8a1.666,1.666,0,0,1,1.529.594c.263.242.441.58.757.75a2.463,2.463,0,0,0,1,.242c1.977.2,6.54.117,4.111,3.428-2.208,3.009-8.069,1.81-11.451.992a1.149,1.149,0,0,1-.622-.26,1.549,1.549,0,0,1-.356-.672c-.388-1.422-.914-3.179.825-3.773.74-.252,1.422.238,2.208-.032C489.436,703.847,490.1,702.922,490.774,702.8Z" transform="translate(-351.054 -482.017)" fill="#212940"/>
      <path id="Path_738" data-name="Path 738" d="M461.8,497.218l-16.785-.327q-6.792-32.318-11.956-64.96a11.532,11.532,0,0,1-.039-5.075c.918-3.1,4.232-4.861,7.407-5.455,4.932-.921,13.993.356,16.525,5.491,2.671,5.42,2.223,15.1,2.873,21.088a364.321,364.321,0,0,1,1.974,49.239Z" transform="translate(-317.156 -300.526)" fill="#314f8f"/>
      <path id="Path_739" data-name="Path 739" d="M394.445,649.9a26.1,26.1,0,0,1-3.229-.309c-.555-10.669.455-21.878.893-32.61l8.233.441a95.935,95.935,0,0,0-4.075,17.646C396.141,636.016,394.591,649.892,394.445,649.9Z" transform="translate(-290.287 -426.732)" fill="#ffddc9"/>
      <path id="Path_740" data-name="Path 740" d="M375.911,702.8a1.665,1.665,0,0,0-1.529.594c-.263.242-.441.58-.757.75a2.463,2.463,0,0,1-1,.242c-1.977.2-6.54.117-4.111,3.428,2.208,3.009,8.069,1.81,11.451.992a1.149,1.149,0,0,0,.622-.26,1.548,1.548,0,0,0,.356-.672c.388-1.422.914-3.179-.825-3.773-.74-.252-1.422.238-2.208-.032C377.248,703.847,376.587,702.922,375.911,702.8Z" transform="translate(-275.313 -482.017)" fill="#212940"/>
      <path id="Path_741" data-name="Path 741" d="M376.468,497.218l16.785-.327q6.785-32.318,11.956-64.96a11.534,11.534,0,0,0,.039-5.075c-.918-3.1-4.232-4.861-7.408-5.455-4.932-.921-13.994.356-16.526,5.491-2.671,5.42-2.223,15.1-2.87,21.088a363.721,363.721,0,0,0-1.977,49.239Z" transform="translate(-280.798 -300.526)" fill="#314f8f"/>
      <path id="Path_742" data-name="Path 742" d="M499.2,204.01a1.067,1.067,0,0,0-.2.26c-.441.889-.135,1.615-.313,2.585-.082.434-1.127.868-.459,1.5.249.235.935.711,1.465,1.213a6.472,6.472,0,0,1,1.561,3.265c.921,4.623.562,9.346.057,14.018a1.675,1.675,0,0,1-.21.768,1.774,1.774,0,0,1-1.273.573,36.1,36.1,0,0,0-6.454,1.647,13.371,13.371,0,0,0-5.128,2.927,6.034,6.034,0,0,0-1.835,5.4,4.708,4.708,0,0,0,2.777,3.268c3.414,1.383,7.215-2.432,9.826-4.214a64.028,64.028,0,0,0,7.03-5.555,2.752,2.752,0,0,0,.711-.843,2.845,2.845,0,0,0,.171-1.159,139.686,139.686,0,0,0-.935-15.156c-.146-1.39-1-2.525-1.127-3.812-.078-.818.452-1.519.548-2.312a7.686,7.686,0,0,0-.174-2.6c-.395-1.5-1.885-2.095-3.137-2.738a1.658,1.658,0,0,0-.85-.267,2.365,2.365,0,0,0-1.358.626,4.442,4.442,0,0,0-.7.6Z" transform="translate(-351.66 -159.829)" fill="#ffddc9"/>
      <path id="Path_743" data-name="Path 743" d="M476.712,261.664c2.191-1.54,4.239-3.272,6.373-5a3.379,3.379,0,0,0,1-1.088,3.276,3.276,0,0,0,.242-1.287,122.948,122.948,0,0,0-.377-17.912l-5.711.441q-.085,4.235-.174,8.478a4.654,4.654,0,0,1-.494,2.464,4.82,4.82,0,0,1-2.262,1.629,17.279,17.279,0,0,1-7.7,1.33,51.178,51.178,0,0,0-14.342,2.194,3.416,3.416,0,0,0-2.255,1.472,3.527,3.527,0,0,0-.231,1.5,33.7,33.7,0,0,0,.5,7.087c.4,1.831,1.511,5.2,3.343,6.149,1.778.921,4.883-.039,6.757-.452,3.93,0,8.371-2.962,11.693-4.737A35.339,35.339,0,0,0,476.712,261.664Z" transform="translate(-328.766 -181.48)" fill="#a1bdeb"/>
      <path id="Path_744" data-name="Path 744" d="M392.438,290.669c-1.223,1.533-2.749,2.845-3.951,4.442a41.07,41.07,0,0,0-5.917,11c-3.585,10.064-3.652,20.8-3.688,31.333l-.032,10.508c0,3.446.3,4.189,4.04,3.734,6.942-.846,14.15-2.269,20.448-5.356,2.994-1.469,5.793-3.325,8.93-4.481,4.566-1.679,9.246-.917,13.762-2.013a107.086,107.086,0,0,1-4.371-17.07c-1.038-6.287-1.977-13.158-3.5-19.349a50.874,50.874,0,0,0-4.331-10.622,32.683,32.683,0,0,0-2.109-3.759,13.51,13.51,0,0,0-1.422-1.778c-.373-.391-.74-1.067-1.259-1.234a37.539,37.539,0,0,0-4.335-1c-.256-.281-.075-.857-.42-1.014a.615.615,0,0,0-.3-.028l-6.163.455a3.375,3.375,0,0,0,.1,1.142,1.188,1.188,0,0,1-.245,1.067,1.522,1.522,0,0,1-.626.284l-.217.071c-1.977.658-3.083,1.959-4.31,3.535Z" transform="translate(-282.423 -212.146)" fill="#a1bdeb"/>
      <path id="Path_745" data-name="Path 745" d="M442.868,82,374,82.181a9.029,9.029,0,0,0-8.94,9.111l.075,29.744a9.026,9.026,0,0,0,8.99,9.061l68.869-.185a9.026,9.026,0,0,0,8.944-9.107l-.078-29.744A9.026,9.026,0,0,0,442.868,82Z" transform="translate(-273.536 -82)" fill="#46d683"/>
      <g id="Group_1306" data-name="Group 1306" transform="translate(134.866)" opacity="0.08">
        <path id="Path_746" data-name="Path 746" d="M521.125,82l-34.185.092.124,47.916,34.185-.089a9.31,9.31,0,0,0,9.221-9.4L530.4,91.36A9.31,9.31,0,0,0,521.125,82Z" transform="translate(-486.94 -82)"/>
      </g>
      <path id="Path_747" data-name="Path 747" d="M448.322,90.89l-66.2.178a6.622,6.622,0,0,0-6.554,6.675l.071,28.279a6.622,6.622,0,0,0,6.59,6.639l66.216-.174a6.622,6.622,0,0,0,6.55-6.675l-.071-28.279A6.625,6.625,0,0,0,448.322,90.89Z" transform="translate(-280.309 -87.729)" fill="#30d174"/>
      <path id="Path_748" data-name="Path 748" d="M520.158,90.89l-33.108.089.11,41.607,33.108-.089a6.622,6.622,0,0,0,6.55-6.675l-.071-28.279A6.625,6.625,0,0,0,520.158,90.89Z" transform="translate(-352.145 -87.729)" fill="#f3f9fb" opacity="0.11"/>
      <path id="Path_750" data-name="Path 750" d="M409.773,132.748a5.981,5.981,0,0,1-1.778,4.41,6.088,6.088,0,0,1-8.652,0,5.989,5.989,0,0,1-1.8-4.371l-.039-14.157a6.108,6.108,0,1,1,12.215-.018Zm-4.04-14.225a2.216,2.216,0,1,0-4.431.007l.036,14.175a2.2,2.2,0,0,0,.647,1.593,2.091,2.091,0,0,0,1.565.658,2.134,2.134,0,0,0,1.572-.665,2.183,2.183,0,0,0,.647-1.6Z" transform="translate(-294.445 -101.596)" fill="#fff"/>
      <path id="Path_793" data-name="Path 793" d="M409.773,132.748a5.981,5.981,0,0,1-1.778,4.41,6.088,6.088,0,0,1-8.652,0,5.989,5.989,0,0,1-1.8-4.371l-.039-14.157a6.108,6.108,0,1,1,12.215-.018Zm-4.04-14.225a2.216,2.216,0,1,0-4.431.007l.036,14.175a2.2,2.2,0,0,0,.647,1.593,2.091,2.091,0,0,0,1.565.658,2.134,2.134,0,0,0,1.572-.665,2.183,2.183,0,0,0,.647-1.6Z" transform="translate(-279.864 -101.596)" fill="#fff"/>
      <path id="Path_751" data-name="Path 751" d="M511,132.556a5.981,5.981,0,0,1-1.778,4.392,6.088,6.088,0,0,1-8.652,0,5.988,5.988,0,0,1-1.8-4.371l-.039-14.157a6.108,6.108,0,1,1,12.215-.018Zm-4.04-14.225a2.219,2.219,0,1,0-4.438.018l.036,14.175a2.2,2.2,0,0,0,.647,1.593,2.091,2.091,0,0,0,1.565.658,2.133,2.133,0,0,0,1.572-.665,2.183,2.183,0,0,0,.647-1.6Z" transform="translate(-359.676 -101.461)" fill="#fff"/>
      <path id="Path_752" data-name="Path 752" d="M554.779,132.42A5.963,5.963,0,0,1,553,136.812a6.077,6.077,0,0,1-8.649,0,6.006,6.006,0,0,1-1.8-4.374l-.036-14.157a6.017,6.017,0,0,1,1.778-4.4,5.875,5.875,0,0,1,4.324-1.821,5.8,5.8,0,0,1,4.335,1.81,6.046,6.046,0,0,1,1.778,4.381Zm-4.04-14.225a2.18,2.18,0,0,0-.658-1.593,2.134,2.134,0,0,0-1.572-.658,2.091,2.091,0,0,0-1.561.665,2.205,2.205,0,0,0-.64,1.6l.036,14.178a2.2,2.2,0,0,0,.647,1.59,2.091,2.091,0,0,0,1.565.658,2.134,2.134,0,0,0,1.572-.665,2.194,2.194,0,0,0,.651-1.6Z" transform="translate(-387.887 -101.368)" fill="#fff"/>
      <path id="Path_753" data-name="Path 753" d="M482.72,132.48h3.161V135.7H482.72Zm.021,9.015H485.9v3.2h-3.158Z" transform="translate(-349.355 -114.528)" fill="#fff"/>
      <circle id="Ellipse_94" data-name="Ellipse 94" cx="65.298" cy="65.298" r="65.298" transform="translate(96.697 95.633) rotate(-5.45)" fill="#ffce3b"/>
      <circle id="Ellipse_95" data-name="Ellipse 95" cx="56.589" cy="56.589" r="56.589" transform="matrix(1, -0.02, 0.02, 1, 110.218, 98.96)" fill="#fff"/>
      <g id="Group_1307" data-name="Group 1307" transform="translate(140.033 102.773)" opacity="0.07">
        <path id="Path_754" data-name="Path 754" d="M551.8,371A56.589,56.589,0,0,1,501.47,472.159,56.589,56.589,0,1,0,551.8,371Z" transform="translate(-501.47 -371)" fill="#2f4862"/>
      </g>
      <path id="Path_755" data-name="Path 755" d="M569.126,487.626l.683,2.134a1.067,1.067,0,0,0,1.348.711l51.675-16.483a1.067,1.067,0,0,0,.711-1.348l-.679-2.134a1.067,1.067,0,0,0-1.351-.693L569.823,486.26a1.067,1.067,0,0,0-.7,1.366Z" transform="translate(-404.997 -331.866)" fill="#ffc107"/>
      <path id="Path_756" data-name="Path 756" d="M557.054,454.29l-9.545-26.1a2.176,2.176,0,0,0-2.792-1.3h0a2.176,2.176,0,0,0-1.3,2.792l9.548,26.106a4.349,4.349,0,1,0,4.086-1.5Z" transform="translate(-388.383 -304.155)" fill="#212940"/>
      <path id="Path_757" data-name="Path 757" d="M115.094,383.246l69.025-8.179a8.346,8.346,0,0,1,9.3,7.279l5.558,46.963a8.353,8.353,0,0,1-7.343,9.246L122.6,446.735a8.353,8.353,0,0,1-9.3-7.28l-5.555-46.963a8.35,8.35,0,0,1,7.343-9.246Z" transform="translate(-107.695 -270.808)" fill="#314f8f"/>
      <path id="Path_758" data-name="Path 758" d="M277.075,435.181l16.447-1.945a2.251,2.251,0,0,0,1.981-2.489l-1.931-16.333a2.255,2.255,0,0,0-2.507-1.963L274.615,414.4a2.251,2.251,0,0,0-1.981,2.489l1.935,16.333a2.247,2.247,0,0,0,2.507,1.963Z" transform="translate(-213.97 -294.926)" fill="#fff"/>
      <path id="Path_759" data-name="Path 759" d="M285.675,504.621l16.447-1.945a2.254,2.254,0,0,0,1.981-2.489l-1.931-16.333a2.255,2.255,0,0,0-2.507-1.963l-16.451,1.945a2.251,2.251,0,0,0-1.981,2.489l1.935,16.337A2.251,2.251,0,0,0,285.675,504.621Z" transform="translate(-219.511 -339.672)" fill="#fff"/>
      <path id="Path_760" data-name="Path 760" d="M204.849,443.725,221.3,441.78a2.251,2.251,0,0,0,1.981-2.489l-1.931-16.333a2.255,2.255,0,0,0-2.489-1.963l-16.472,1.942a2.251,2.251,0,0,0-1.981,2.489l1.935,16.337a2.247,2.247,0,0,0,2.511,1.963Z" transform="translate(-167.426 -300.433)" fill="#fff"/>
      <path id="Path_761" data-name="Path 761" d="M213.456,513.174l16.447-1.945a2.251,2.251,0,0,0,1.981-2.489l-1.931-16.326a2.255,2.255,0,0,0-2.507-1.963L211,492.4a2.255,2.255,0,0,0-1.981,2.489l1.935,16.334A2.251,2.251,0,0,0,213.456,513.174Z" transform="translate(-172.975 -345.188)" fill="#fff"/>
      <path id="Path_762" data-name="Path 762" d="M132.635,452.262,149.1,450.31a2.255,2.255,0,0,0,1.981-2.489l-1.931-16.333a2.255,2.255,0,0,0-2.489-1.963l-16.483,1.938a2.251,2.251,0,0,0-1.981,2.489l1.935,16.358A2.251,2.251,0,0,0,132.635,452.262Z" transform="translate(-120.895 -305.93)" fill="#fff"/>
      <path id="Path_763" data-name="Path 763" d="M141.268,521.692l16.447-1.945a2.251,2.251,0,0,0,1.981-2.489l-1.931-16.341a2.255,2.255,0,0,0-2.489-1.963L138.825,500.9a2.251,2.251,0,0,0-1.981,2.489l1.935,16.333A2.251,2.251,0,0,0,141.268,521.692Z" transform="translate(-126.469 -350.669)" fill="#fff"/>
      <path id="Path_764" data-name="Path 764" d="M290.775,358.712l2.4-.285a2.379,2.379,0,0,1,2.653,2.077l1.046,8.819a2.383,2.383,0,0,1-2.1,2.639l-2.4.284a2.386,2.386,0,0,1-2.653-2.077l-1.042-8.819a2.375,2.375,0,0,1,2.095-2.639Z" transform="translate(-224.309 -260.114)" fill="#a1bdeb"/>
      <path id="Path_765" data-name="Path 765" d="M139.654,376.582l2.4-.285a2.379,2.379,0,0,1,2.653,2.077l1.042,8.83a2.379,2.379,0,0,1-2.095,2.639l-2.4.284a2.386,2.386,0,0,1-2.653-2.077l-1.042-8.823a2.379,2.379,0,0,1,2.095-2.646Z" transform="translate(-126.929 -271.629)" fill="#a1bdeb"/>
      <path id="Path_766" data-name="Path 766" d="M185.566,386.108a1.067,1.067,0,0,0-.05-.338c-.356-.974-1.11-1.277-1.7-2.116-.267-.373.167-1.472-.789-1.422-.356.018-1.216.178-1.97.217a6.758,6.758,0,0,1-3.577-1.209c-4.118-2.664-7.393-6.373-10.523-10.146a1.725,1.725,0,0,1-.42-.711,1.848,1.848,0,0,1,.494-1.369,37.342,37.342,0,0,0,3.464-6.042,13.979,13.979,0,0,0,1.54-5.96,6.3,6.3,0,0,0-2.706-5.3c-1.323-.807-3.364-1.39-4.463-.3-1.956,1.949-3.425,7.162-3.994,10.409a66.758,66.758,0,0,0-.96,9.292,2.934,2.934,0,0,0,.121,1.142,2.881,2.881,0,0,0,.743.967,144.8,144.8,0,0,0,12.013,10.313c1.145.9,2.617,1.085,3.666,1.927.672.537.811,1.444,1.33,2.091a8.027,8.027,0,0,0,2.066,1.767c1.422.8,2.934.114,4.328-.356a1.778,1.778,0,0,0,.818-.441,2.525,2.525,0,0,0,.519-1.472A4.743,4.743,0,0,0,185.566,386.108Z" transform="translate(-141.332 -255.22)" fill="#ffddc9"/>
      <path id="Path_767" data-name="Path 767" d="M158.163,337.2v.043a46.8,46.8,0,0,0-.807,10.494c.068,1.629,1.031,2.038,2.237,3.055l4.139,3.5a36.037,36.037,0,0,1,4.929-4.9c-.711-.914-2.443-2.6-2.212-3.695.277-1.291,1.643-2.88,2.23-4.1,1.376-2.88,2.489-5.875,3.574-8.873q2.322-6.4,4.541-12.8a10.388,10.388,0,0,0,.74-3.236,3.126,3.126,0,0,0-4.637-3.1,8.887,8.887,0,0,0-2.735,2.134,38.107,38.107,0,0,0-3.887,4.886c-1.067,1.618-2.038,3.318-2.991,5.018q-1.227,2.176-2.447,4.356a27.62,27.62,0,0,0-1.326,2.557,21.94,21.94,0,0,0-1.348,4.673Z" transform="translate(-139.676 -231.007)" fill="#0071bb"/>
      <path id="Path_768" data-name="Path 768" d="M391.136,365.256a1.11,1.11,0,0,0,.018-.324c-.146-.982-.807-1.422-1.216-2.308-.181-.4.434-1.351-.477-1.49-.334-.05-1.177-.06-1.892-.16a6.538,6.538,0,0,1-3.144-1.8,33.4,33.4,0,0,1-3.322-3.592,56.392,56.392,0,0,1-5.5-8.858,15.291,15.291,0,0,0,7.7-13.794,3.5,3.5,0,0,0-.391-1.675,3.051,3.051,0,0,0-1.067-.992c-4.427-2.7-6.8,1.611-8.848,5.007a50.052,50.052,0,0,0-3.4,6.632c-1.341,3.2-.285,6,1.568,8.823a51.151,51.151,0,0,0,6.572,8.535,37.719,37.719,0,0,0,4.018,3.169c1.383,1.035.832,1.583,1.8,2.792a13.956,13.956,0,0,0,1.618,2.027c1.177,1.01,2.738.651,4.136.469a1.679,1.679,0,0,0,.85-.263,2.426,2.426,0,0,0,.765-1.291,4.744,4.744,0,0,0,.217-.907Z" transform="translate(-276.071 -241.43)" fill="#eac5b0"/>
      <path id="Path_769" data-name="Path 769" d="M382.741,290.629a36.174,36.174,0,0,0-12.82,15.882c-1.191,2.845-3.2,5.089-3.734,8.233a16.646,16.646,0,0,0,1.22,9.4c2.212,5.06,6.4,8.976,10.764,12.358l2.941-4.445a1.825,1.825,0,0,0,.373-.864,1.778,1.778,0,0,0-.313-.935l-4.193-7.564a4.228,4.228,0,0,1-.633-1.646c-.146-1.643,1.568-2.916,1.814-4.527l.48.388c-.149-.121,9.122-10.021,9.651-10.629,2.031-2.322,4.114-4.74,4.979-7.7C395.145,292.261,388.388,286.827,382.741,290.629Z" transform="translate(-274.127 -215.625)" fill="#a1bdeb"/>
      <path id="Path_770" data-name="Path 770" d="M722.925,436.76a1.278,1.278,0,0,1-.188-.331c-.377-1.1.085-1.892.025-3.044-.025-.516-1.174-1.177-.3-1.807.324-.231,1.191-.711,1.881-1.181a7.57,7.57,0,0,0,2.3-3.556c.85-2.507.327-10.185,3.627-11.024,7.752-2.009.555,12.635.231,14.057-.217.939.292,1.831.284,2.763a9,9,0,0,1-.6,2.98c-.683,1.682-2.489,2.134-4.047,2.7a1.966,1.966,0,0,1-1.028.181,2.82,2.82,0,0,1-1.479-.932A5.583,5.583,0,0,1,722.925,436.76Z" transform="translate(-503.629 -296.985)" fill="#eac5b0"/>
      <path id="Path_771" data-name="Path 771" d="M736.56,319.314c.277.384.569.953,1.006,1.611,2.3,3.449,3.325,8.716,4.136,12.717a58.977,58.977,0,0,1-.5,25.882,1.266,1.266,0,0,1-.452.818,1.288,1.288,0,0,1-.918.046l-5.782-1.174a2.467,2.467,0,0,1-1.166-.455,2.555,2.555,0,0,1-.427-2.333,63.222,63.222,0,0,0,.2-16.184c-.3-2.536-1.59-5.661-1.423-8.179.139-2.251,1.423-4.68,1.622-7.141.11-1.479.27-3.673,1.316-4.844C735.547,318.545,736.016,318.556,736.56,319.314Z" transform="translate(-509.483 -234.599)" fill="#37474f"/>
      <path id="Path_772" data-name="Path 772" d="M904.93,590.89l.26,15.779c-.1,4.381.288,8.745.555,13.108.249,4.054-.569,8.233,1.355,11.991.6,1.177,1.888,2,2.863.637.754-1.067.405-2.845.594-4.083,1.394-9.146,4-18.069,5.292-27.237C917.209,591.487,913.49,591.74,904.93,590.89Z" transform="translate(-621.42 -409.92)" fill="#eac5b0"/>
      <path id="Path_773" data-name="Path 773" d="M905.617,697.258l-1.017,2.632,4.993,4.4,4.573.189,1.479-2.415L909.5,696.71Z" transform="translate(-621.208 -478.109)" fill="#212940"/>
      <path id="Path_774" data-name="Path 774" d="M850.337,589.647l-2.88,15.533c-1,6.942-3.265,13.7-4.267,20.647-.228,1.593-.114,3.343-.779,4.847s-1.931,1.533-3.058.533c-1.511-1.341-.814-3.734-.786-5.562.185-12.183-.775-24.182-1.006-36.4a.562.562,0,0,1,.128-.445.523.523,0,0,1,.356-.075C839.252,588.794,850.273,589.981,850.337,589.647Z" transform="translate(-578.004 -408.525)" fill="#eac5b0"/>
      <path id="Path_775" data-name="Path 775" d="M837.442,700.07l-1.582,2.336,3.873,5.409,4.413,1.216,1.984-2.016-4.787-6.6Z" transform="translate(-576.913 -480.274)" fill="#212940"/>
      <path id="Path_776" data-name="Path 776" d="M852.207,552.375l3.556-30.939,1.188-33.979-3.492-11.974-18.851-2.923-23.3,3.994-1.124,4.527,9.666,47.468v24.893l6.4.356,6.4-24.537,4.623-40.185,5.69,32.717.711,30.227Z" transform="translate(-560.365 -333.671)" fill="#3d4d55"/>
      <path id="Path_777" data-name="Path 777" d="M858.675,316.207a3.03,3.03,0,0,0-.039-.309c-1.917-10.42,2.056-18.371-5.508-27.674-4.075-5.011-6.17-4.41-11.6-5.74-1.252-.309-3.83-1.227-3.684.711a20.6,20.6,0,0,0-5.135.494l-.057-.711c-3.019.711-7,.921-9.779,2.18-2.984,1.351-5.69,5.74-7.223,8.478-5.27,9.41-3.129,20.921-3.119,31.294,0,2.884-1.945,33.784-.466,33.872,9.246.466,18.275-2.738,27.422-1.874,5.416.512,10.768,1.856,16.077,2.6a1.337,1.337,0,0,0,1.067-.171,1.529,1.529,0,0,0,.4-1.117c.558-7.539.569-15.316.985-22.937C858.344,329.045,859.215,322.455,858.675,316.207Z" transform="translate(-561.221 -210.874)" fill="#3f60b2"/>
      <path id="Path_778" data-name="Path 778" d="M894.87,146.506l6.152,26.938a15.4,15.4,0,0,0,16.291,11.81c-.43.146-.85.313-1.255.494a14.74,14.74,0,0,0-8.4,16.764l6.152,26.934,38.741-8.14L946.4,194.372a15.4,15.4,0,0,0-16.291-11.81c.43-.146.85-.313,1.259-.494a14.737,14.737,0,0,0,8.393-16.764l-6.152-26.934Z" transform="translate(-614.938 -118.324)" fill="#f2283f"/>
      <path id="Path_779" data-name="Path 779" d="M926.09,133.713l-47.354,9.957a2.468,2.468,0,0,1-2.913-1.846h0a2.369,2.369,0,0,1,1.842-2.845l47.354-9.957a2.468,2.468,0,0,1,2.912,1.846h0a2.368,2.368,0,0,1-1.842,2.845Z" transform="translate(-602.627 -112.266)" fill="#212940"/>
      <path id="Path_780" data-name="Path 780" d="M979.36,366.932l-47.354,9.957a2.464,2.464,0,0,1-2.913-1.846h0a2.369,2.369,0,0,1,1.842-2.845l47.35-9.957a2.464,2.464,0,0,1,2.912,1.846h0a2.365,2.365,0,0,1-1.839,2.845Z" transform="translate(-636.953 -262.548)" fill="#212940"/>
      <path id="Path_781" data-name="Path 781" d="M1013.1,279.483c-3.6-10-11.245-10.334-12.251-10.434a1.148,1.148,0,0,1-1.092-.882,1.1,1.1,0,0,1,.857-1.323,1.453,1.453,0,0,1,.213-.025h.046a1.177,1.177,0,0,1,.2.018C1010.828,268.274,1013.1,279.483,1013.1,279.483Z" transform="translate(-682.51 -201.095)" fill="#f7f7f8"/>
      <path id="Path_782" data-name="Path 782" d="M993.888,268.686a.9.9,0,0,1-1.067-.669.854.854,0,0,1,.669-1.028.893.893,0,0,1,1.067.665.857.857,0,0,1-.669,1.031Z" transform="translate(-678.042 -201.19)" fill="#f7f7f8"/>
      <path id="Path_783" data-name="Path 783" d="M915.73,210.63l.978,4.267a12.8,12.8,0,0,0,5.69,8.016,13.079,13.079,0,0,0,9.744,1.778l.654-.139a4.452,4.452,0,0,1,3.791,3.35l3.556,15.58a3.976,3.976,0,0,1-3.094,4.776l.448-.092a12.632,12.632,0,0,0-8.076,5.516,12.4,12.4,0,0,0-1.682,9.57l.974,4.267,34.257-7.2L962,256.053a12.839,12.839,0,0,0-5.69-8.016,13.072,13.072,0,0,0-9.74-1.778l.27-.057a4.147,4.147,0,0,1-4.89-3.083l-3.556-15.58a4.218,4.218,0,0,1,1.9-4.545l.917-.192a12.649,12.649,0,0,0,8.08-5.516,12.4,12.4,0,0,0,1.682-9.57l-.978-4.267Z" transform="translate(-628.38 -160.26)" fill="#fff"/>
      <path id="Path_784" data-name="Path 784" d="M865.749,298.666a50.05,50.05,0,0,0-.135,11.831,17.642,17.642,0,0,0,.807,4.922,21.7,21.7,0,0,0,3.328,5.228c2.788,3.755,5.775,26.241,7.326,30.651,1.27-4.815,1.753-27.941,3.023-32.756a42.021,42.021,0,0,0,1.778-9.915c.124-6.586-2.8-12.8-5.661-18.734a10.256,10.256,0,0,0-1.518-2.507c-1.842-2.038-6-2.308-7.468.26-.686,1.195-.356,2.77-.427,4.061A61.1,61.1,0,0,1,865.749,298.666Z" transform="translate(-595.902 -213.318)" fill="#fff"/>
      <path id="Path_785" data-name="Path 785" d="M881.6,312.312c.558,3.513.555,7.112,1.067,10.668.277,1.938.711,3.851,1.049,5.779a140.362,140.362,0,0,1,1.65,16.565c.068,1.092.132,2.187.2,3.279a5.763,5.763,0,0,1,0,2.489c-.324.651-1.2.743-1.839,1.006a9.323,9.323,0,0,0-2.575,1.543,4.229,4.229,0,0,1-2.681-3.24,13.64,13.64,0,0,1,0-4.385,151.093,151.093,0,0,0-.74-38.552,1.254,1.254,0,0,1-1.522-.711,3.659,3.659,0,0,1-.164-1.842,26.95,26.95,0,0,0,3.2-.021c1.778-.089,2.29.324,2.29,2.283-.861.413-.711,1.661-.462,2.585C881.3,310.612,881.467,311.451,881.6,312.312Z" transform="translate(-602.776 -225.619)" fill="#212940"/>
      <path id="Path_786" data-name="Path 786" d="M910.322,358.128a1.3,1.3,0,0,0-.356-.139c-1.181-.2-1.913.412-3.1.548-.53.06-1.4-1-1.9,0-.181.356-.5,1.33-.882,2.134a7.862,7.862,0,0,1-3.229,2.948c-5.021,2.674-10.622,3.912-16.188,4.979a2,2,0,0,1-.96.025c-.558-.164-.861-.747-1.113-1.266a43.531,43.531,0,0,0-4.171-6.888,16.151,16.151,0,0,0-5.185-4.9,7.269,7.269,0,0,0-6.888-.224,5.69,5.69,0,0,0-2.813,4.36c-.4,4.435,5.334,7.486,8.321,9.879a77.434,77.434,0,0,0,8.89,6.177,2.532,2.532,0,0,0,2.621.306,169.332,169.332,0,0,0,17.194-6.4c1.557-.658,2.568-2.048,4.011-2.642.921-.377,1.917,0,2.866-.178a9.3,9.3,0,0,0,2.938-1.117c1.6-.981,1.778-2.912,2.066-4.587a2.017,2.017,0,0,0,0-1.067,2.929,2.929,0,0,0-1.2-1.351,5.414,5.414,0,0,0-.928-.6Z" transform="translate(-594.739 -257.645)" fill="#ffddc9"/>
      <path id="Path_787" data-name="Path 787" d="M847.241,338.676c2,1.483,4.011,2.969,5.9,4.662a10.693,10.693,0,0,0,4.164,2.777,8.854,8.854,0,0,0,3.183.068,54.017,54.017,0,0,0,18.883-5.725,3.489,3.489,0,0,0,1.444-1.127c.562-.91.213-2.087-.153-3.094q-.647-1.778-1.287-3.556a1.255,1.255,0,0,0-1.611-1.067,97.5,97.5,0,0,0-12.447,1.839,7.011,7.011,0,0,1-3.954.1c-2.678-1.028-5.114-7.6-6.565-10.153-1.661-2.913-3.225-5.889-4.957-8.759-1.924-3.2-3.94-6.483-7.02-8.577-6.575-4.474-15.32,1.291-13.03,9.193a43.1,43.1,0,0,0,9.054,16.156A49.707,49.707,0,0,0,847.241,338.676Z" transform="translate(-572.764 -225.377)" fill="#3f60b2"/>
      <path id="Path_788" data-name="Path 788" d="M891.078,221.363a12.069,12.069,0,0,1,1.469,5.437,1.722,1.722,0,0,0,.462,1.38c.406.3.053,1.017.384.594a9.247,9.247,0,0,0,1.508-2.443,19.807,19.807,0,0,0,0-3.787,5.437,5.437,0,0,0-1.046-3.069,6.239,6.239,0,0,0-1.55-1.181,7.9,7.9,0,0,0-2.571-1.156c-1.6-.3-2.585.277-1.17,1.394a9.808,9.808,0,0,1,2.514,2.831Z" transform="translate(-610.435 -169.03)" fill="#212940"/>
      <path id="Path_789" data-name="Path 789" d="M858.233,243.488a10.929,10.929,0,0,0,.107,1.81,44.019,44.019,0,0,1,4.587,4.1,10.134,10.134,0,0,0,2.134-3.994c.124-.637.1-7,.455-7.063,1.92-.331,4.178-.95,4.833-2.962a6.665,6.665,0,0,0,.221-2q.025-4.175.06-8.357a8.043,8.043,0,0,0-.32-2.845,5.842,5.842,0,0,0-3.492-3.09,12.51,12.51,0,0,0-11.38.711,6.2,6.2,0,0,0-2.276,2.29,9.67,9.67,0,0,0-.58,5.185q.178,2.443.356,4.89c.135,1.874.416,4.029,1.87,5.021.772.526,1.778.622,2.44,1.3C858.365,239.59,858.237,241.678,858.233,243.488Z" transform="translate(-587.632 -169.676)" fill="#ffddc9"/>
      <path id="Path_790" data-name="Path 790" d="M871.263,255.5c-.032-.516-.26-2.031-1.035-1.067a1.576,1.576,0,0,0-.267.932,3.485,3.485,0,0,1-.1.985,1.74,1.74,0,0,1-1.739,1.028,1.668,1.668,0,0,1-.814-.192,2.533,2.533,0,0,1-.619-.569l-1.359-1.558c-.779-.893-2.322-.509-3.371-.356a6.729,6.729,0,0,0-3.407,1.316l-.292.249a3.68,3.68,0,0,1-.754.544,2.324,2.324,0,0,1-2.745-.871c-.3-.388-.58-.889-1.045-.953a.956.956,0,0,0-.907.551,2.8,2.8,0,0,0-.263,1.142,8.4,8.4,0,0,0,.733,4.2c1.351,2.767,3.965,3.108,6.593,3.048l3.115-.075c1.9-.046,3.912-.124,5.505-1.227a6.769,6.769,0,0,0,2.592-4.363A10.824,10.824,0,0,0,871.263,255.5Zm-6.949,3.912a3.638,3.638,0,0,1-3.2.373c-.473-.146-.274-.939.2-.8a2.923,2.923,0,0,0,2.625-.288c.405-.26.789.452.373.733Z" transform="translate(-587.647 -192.909)" fill="#212940"/>
      <path id="Path_791" data-name="Path 791" d="M868.321,208.552a14.449,14.449,0,0,0,.406-2.055,4.075,4.075,0,0,1-2.013.171v-1.2c0-.331-4.506-.565-4.872-.6-3.428-.281-6.565-.548-9.662,1.294a9.324,9.324,0,0,0-4.755,6.97,14.3,14.3,0,0,0,2.255,9.154c0-.779-.455-2.61-.27-3.35a6.548,6.548,0,0,1,.711-2.112,8.705,8.705,0,0,1,3.055-3.2,16.969,16.969,0,0,1,6.678-2.251,18.276,18.276,0,0,1,6.853,0c1.017.27,1.184.526,1.8-.5a17.457,17.457,0,0,0,.885-2.294Z" transform="translate(-584.309 -161.045)" fill="#212940"/>
      <path id="Path_792" data-name="Path 792" d="M138.176,716.089l108.463,4.442h.277l173.022-4.538a3.94,3.94,0,0,0,3.773-3l.533-2.347A3.867,3.867,0,0,0,420.333,706l-282,2.44a4.164,4.164,0,0,0-1.216.2h0A3.8,3.8,0,0,0,138.176,716.089Z" transform="translate(-124.885 -484.095)" fill="#212940" opacity="0.36"/>
    </g>
  </g>
</svg>
